<svg width="1135" height="195" viewBox="0 0 1135 195" fill="none" xmlns="http://www.w3.org/2000/svg">
<g>

<path d="M326.224 65.2558L393.956 65.4918L393.484 90.9798L361.624 90.5078L361.388 103.724L383.1 104.196L384.28 129.212L363.748 130.392V143.608L558.448 139.832L559.392 181.368L328.112 182.548L326.224 65.2558ZM403.16 15.6958L455.552 15.9318L488.356 66.1998V17.3478L528.712 16.8758L530.6 130.628L477.736 131.1L446.348 77.9998L447.764 132.516L401.98 133.696L403.16 15.6958ZM538.86 19.9438L678.572 18.0558L680.696 69.5038L615.796 70.4478L616.032 183.256L572.372 183.964L571.9 75.1678L539.804 73.9878L538.86 19.9438ZM237.488 53.4558C246.22 12.3918 294.836 0.591845 393.248 19.9438L384.988 59.5918C302.624 45.9038 289.172 51.0958 284.688 59.5918C274.304 79.1798 319.852 96.8799 319.852 144.788C319.852 153.52 317.964 186.324 266.28 186.324C227.576 186.324 210.112 160.836 213.652 122.368L249.76 124.728C248.108 140.068 263.448 151.632 273.36 142.428C292.476 124.492 227.34 102.072 237.488 53.4558ZM685.652 16.4038L753.384 17.1118L776.512 54.1638L794.684 18.9998H850.144L803.888 109.86L807.9 183.02L757.16 183.728L752.204 105.14L685.652 16.4038ZM627.596 79.1798C663.232 78.4718 698.868 78.7078 714.68 81.5398C725.772 83.4278 740.404 91.9239 740.876 110.332C741.112 124.492 732.38 139.832 706.656 141.956L747.012 181.604H695.8L672.2 143.136H667.952L669.84 183.492H627.124L627.596 79.1798ZM667.244 103.016V121.424C689.664 121.896 697.924 120.48 697.924 112.692C697.924 104.196 688.484 102.072 667.244 103.016ZM946.002 15.9318C996.27 17.5838 1008.31 46.3758 1009.49 79.4159L954.498 78.2358C954.262 71.6278 953.554 59.8278 941.99 60.0638C929.954 60.2998 926.65 73.0438 925.234 82.4838C922.874 99.7118 920.042 131.572 938.922 131.1C948.834 130.864 948.834 121.896 949.778 107.028L1008.31 108.444C1009.96 137.708 998.158 171.22 966.534 182.784C946.474 190.1 919.098 188.212 903.286 180.896C885.114 172.4 870.718 151.632 870.246 107.028C869.538 31.5078 906.59 14.7518 946.002 15.9318ZM1018.54 18.2918L1070.93 14.9878L1069.51 122.132H1129.93L1129.46 182.548L1016.65 186.088L1018.54 18.2918ZM1082.02 17.1118L1129.22 18.0558L1127.57 110.332L1080.13 110.568L1082.02 17.1118Z" fill="#181225"/>
<path d="M14.6171 154.186C13.0897 153.758 2.23092 177.514 0.721555 181.937C-0.787814 186.36 -0.217924 191.923 5.22766 192.921C10.6732 193.92 62.642 195.028 64.1182 193.756C65.5944 192.485 63.2062 179.494 55.8467 164.55C47.3684 147.353 38.2077 141.945 38.1299 140.362C38.0522 138.779 44.5496 125.656 46.5072 125.802C48.4648 125.948 61.8272 137.194 72.4511 153.366C86.4464 174.662 84.616 193.902 86.155 194.414C87.694 194.926 137.885 196.097 140.919 192.38C143.953 188.663 137.172 152.109 123.196 128.556C104.101 96.3733 80.2763 77.4459 79.4872 74.8258C78.6982 72.2056 98.5699 40.9574 100.923 41.1326C103.275 41.3079 128.476 75.8187 147.497 112.033C163.558 142.608 176.135 169.568 175.376 171.877C174.617 174.186 163.043 173.324 161.797 174.215C160.55 175.107 160.907 191.497 161.992 192.764C163.078 194.031 198.187 190.806 200.848 189.943C205.295 188.501 206.654 183.474 204.919 177.629C203.185 171.784 170.36 110.908 161.852 96.7382C140.852 61.7874 108.964 17.873 106.845 14.5609C104.726 11.2488 98.6321 10.9906 95.7928 14.7219C92.9535 18.4532 53.0862 77.1993 54.3287 79.0646C55.5712 80.93 83.4716 101.649 98.0091 125.298C111.727 147.611 121.543 172.005 119.302 175.586C117.061 179.166 100.973 178.163 99.2912 176.858C97.6097 175.553 97.4544 159.171 83.6925 137.448C69.4272 114.922 46.935 96.2596 44.5674 96.2848C42.1998 96.31 17.7302 141.606 18.4121 143.038C19.094 144.47 28.5243 149.204 36.489 159.764C42.9483 168.327 46.421 177.266 44.7506 178.517C43.0803 179.768 20.328 180.836 19.4452 179.395C18.5624 177.954 25.4121 170.768 24.9538 168.961C24.4955 167.154 16.5512 154.728 14.6167 154.192L14.6171 154.186Z" fill="#181225"/>
</g>

</svg>
