<svg xmlns="http://www.w3.org/2000/svg" viewBox="0 12 206 183" fill="none"><path d="M14.6171 154.186C13.0897 153.758 2.23092 177.514 0.721555 181.937C-0.787814 186.36 -0.217924 191.923 5.22766 192.921C10.6732 193.92 62.642 195.028 64.1182 193.756C65.5944 192.485 63.2062 179.494 55.8467 164.55C47.3684 147.353 38.2077 141.945 38.1299 140.362C38.0522 138.779 44.5496 125.656 46.5072 125.802C48.4648 125.948 61.8272 137.194 72.4511 153.366C86.4464 174.662 84.616 193.902 86.155 194.414C87.694 194.926 137.885 196.097 140.919 192.38C143.953 188.663 137.172 152.109 123.196 128.556C104.101 96.3733 80.2763 77.4459 79.4872 74.8258C78.6982 72.2056 98.5699 40.9574 100.923 41.1326C103.275 41.3079 128.476 75.8187 147.497 112.033C163.558 142.608 176.135 169.568 175.376 171.877C174.617 174.186 163.043 173.324 161.797 174.215C160.55 175.107 160.907 191.497 161.992 192.764C163.078 194.031 198.187 190.806 200.848 189.943C205.295 188.501 206.654 183.474 204.919 177.629C203.185 171.784 170.36 110.908 161.852 96.7382C140.852 61.7874 108.964 17.873 106.845 14.5609C104.726 11.2488 98.6321 10.9906 95.7928 14.7219C92.9535 18.4532 53.0862 77.1993 54.3287 79.0646C55.5712 80.93 83.4716 101.649 98.0091 125.298C111.727 147.611 121.543 172.005 119.302 175.586C117.061 179.166 100.973 178.163 99.2912 176.858C97.6097 175.553 97.4544 159.171 83.6925 137.448C69.4272 114.922 46.935 96.2596 44.5674 96.2848C42.1998 96.31 17.7302 141.606 18.4121 143.038C19.094 144.47 28.5243 149.204 36.489 159.764C42.9483 168.327 46.421 177.266 44.7506 178.517C43.0803 179.768 20.328 180.836 19.4452 179.395C18.5624 177.954 25.4121 170.768 24.9538 168.961C24.4955 167.154 16.5512 154.728 14.6167 154.192L14.6171 154.186Z" fill="white"/></svg>
